<?xml version="1.0" encoding="UTF-8"?><svg id="Layer_1" xmlns="http://www.w3.org/2000/svg" viewBox="0 0 584.58 161.68"><defs><style>.cls-1{fill:#231f20;}</style></defs><polygon class="cls-1" points="119.7 39.85 71.9 39.85 38.27 77.02 38.27 0 0 0 0 159.24 38.27 159.24 38.27 108.15 75.83 159.24 121.69 159.24 70.22 91.67 119.7 39.85"/><path class="cls-1" d="M203.59,45.18c-9.42-5.16-20.39-7.78-32.6-7.78s-23.18,2.58-32.59,7.67c-9.45,5.11-16.91,12.43-22.16,21.74-5.23,9.29-7.89,20.06-7.89,32.02s2.65,23.43,7.88,32.91c5.25,9.52,12.71,16.98,22.16,22.16,9.41,5.16,20.38,7.78,32.6,7.78s23.4-2.62,32.81-7.77c9.46-5.18,16.88-12.64,22.06-22.17,5.16-9.48,7.77-20.55,7.77-32.9s-2.66-22.7-7.89-31.92c-5.25-9.24-12.7-16.55-22.15-21.73Zm-15.93,75.26c-4.1,5.28-9.55,7.84-16.67,7.84s-12.67-2.54-16.9-7.78c-4.28-5.29-6.45-12.58-6.45-21.68,0-8.54,2.2-15.48,6.53-20.63,4.31-5.12,9.81-7.6,16.83-7.6s12.43,2.48,16.6,7.58c4.21,5.16,6.35,12.11,6.35,20.66,0,8.98-2.11,16.25-6.28,21.61Z"/><path class="cls-1" d="M335.78,45.18c-9.42-5.16-20.39-7.78-32.6-7.78s-23.18,2.58-32.59,7.67c-9.45,5.11-16.91,12.43-22.16,21.74-5.23,9.29-7.89,20.06-7.89,32.02s2.65,23.43,7.88,32.91c5.25,9.52,12.71,16.98,22.16,22.16,9.41,5.16,20.38,7.78,32.6,7.78s23.4-2.62,32.81-7.77c9.46-5.18,16.88-12.64,22.07-22.17,5.16-9.48,7.77-20.55,7.77-32.9s-2.66-22.7-7.89-31.92c-5.25-9.24-12.7-16.55-22.15-21.73Zm-15.93,75.26c-4.1,5.28-9.55,7.84-16.67,7.84s-12.67-2.54-16.9-7.78c-4.28-5.29-6.45-12.58-6.45-21.68,0-8.54,2.2-15.48,6.53-20.63,4.31-5.12,9.81-7.6,16.83-7.6s12.43,2.48,16.6,7.58c4.21,5.16,6.35,12.11,6.35,20.66,0,8.98-2.11,16.25-6.28,21.61Z"/><polygon class="cls-1" points="437.88 39.85 419.1 99.57 401.07 39.85 360.4 39.85 404.41 159.24 434.32 159.24 478.54 39.85 437.88 39.85"/><path class="cls-1" d="M577.42,100.28c-4.62-4.98-10.21-8.58-16.61-10.72-6.16-2.05-13.99-3.93-23.27-5.56-8.22-1.46-14.28-2.96-17.99-4.46-4.04-1.63-4.5-4.04-4.5-5.72,0-1.87,.9-3.33,2.82-4.58,2.16-1.4,5.17-2.11,8.94-2.11,4.32,0,8.26,1.12,11.7,3.33,3.39,2.18,5.7,5.53,7.07,10.23l.43,1.48h36.31l-.41-2.4c-2.25-13.35-8.36-23.88-18.17-31.29-9.74-7.36-22.1-11.09-36.72-11.09-13.63,0-25.15,3.02-34.27,8.98-9.39,6.14-14.15,15.64-14.15,28.25,0,8.89,2.36,16.05,7.03,21.29,4.55,5.12,10.04,8.84,16.3,11.04,6.03,2.13,13.72,4.1,22.85,5.87,8.09,1.59,14.04,3.19,17.68,4.75,3.99,1.71,4.45,4.15,4.45,5.83,0,2.41-1.14,4.25-3.6,5.78-2.7,1.68-6.27,2.53-10.6,2.53-4.87,0-9.35-1.29-13.33-3.84-3.96-2.53-6.68-6.2-8.3-11.2l-.46-1.42h-36.96l.28,2.31c1.27,10.42,5,19.05,11.1,25.65,6.04,6.53,13.4,11.3,21.89,14.17,8.38,2.84,17.18,4.28,26.17,4.28,10.26,0,19.35-1.66,27.04-4.94,7.78-3.32,13.86-8.12,18.07-14.25,4.22-6.15,6.36-13.32,6.36-21.29,0-8.76-2.41-15.8-7.16-20.92Z"/></svg>