<?xml version="1.0" encoding="utf-8"?>
<!-- Generator: Adobe Illustrator 25.3.1, SVG Export Plug-In . SVG Version: 6.00 Build 0)  -->
<svg version="1.1" id="Layer_1" xmlns="http://www.w3.org/2000/svg" xmlns:xlink="http://www.w3.org/1999/xlink" x="0px" y="0px"
	 width="66px" height="26px" viewBox="0 0 66 26" style="enable-background:new 0 0 66 26;" xml:space="preserve">
<style type="text/css">
	.st0{fill:#FEF5F4;stroke:#EAEAEA;}
	.st1{fill:#4285F4;}
	.st2{fill:#34A853;}
	.st3{fill:#FBBC04;}
	.st4{fill:#EA4335;}
	.st5{fill:#5F259F;stroke:#EAEAEA;}
	.st6{fill:#FFFFFF;}
	.st7{fill:#F8FDFE;stroke:#EAEAEA;}
	.st8{fill-rule:evenodd;clip-rule:evenodd;fill:#00BAF2;}
	.st9{fill-rule:evenodd;clip-rule:evenodd;fill:#20336B;}
</style>
<g>
	<circle class="st0" cx="52.5" cy="13" r="12.5"/>
	<g>
		<path class="st1" d="M58.5,13.14c0-0.42-0.03-0.83-0.11-1.25h-5.77v2.36h3.31c-0.14,0.76-0.58,1.43-1.22,1.86v1.53h1.97
			C57.83,16.58,58.5,15,58.5,13.14L58.5,13.14z"/>
		<path class="st2" d="M52.62,19.12c1.65,0,3.04-0.54,4.06-1.48l-1.97-1.53c-0.55,0.37-1.26,0.59-2.08,0.59
			c-1.6,0-2.95-1.08-3.44-2.53h-2.03v1.58C48.19,17.82,50.31,19.12,52.62,19.12z"/>
		<path class="st3" d="M49.18,14.17c-0.26-0.76-0.26-1.58,0-2.34v-1.58h-2.03c-0.87,1.73-0.87,3.77,0,5.5L49.18,14.17z"/>
		<path class="st4" d="M52.62,9.3c0.87-0.01,1.72,0.32,2.35,0.92l1.75-1.75c-1.11-1.04-2.58-1.61-4.1-1.59
			c-2.31,0-4.43,1.31-5.47,3.37l2.03,1.58C49.67,10.38,51.02,9.3,52.62,9.3z"/>
	</g>
</g>
<g>
	<circle class="st5" cx="33" cy="13" r="12.5"/>
	<path id="path36" class="st6" d="M37.36,10.91c0-0.36-0.31-0.67-0.67-0.67h-1.23l-2.82-3.24C32.38,6.7,31.97,6.6,31.56,6.7
		l-0.98,0.31c-0.15,0.05-0.21,0.26-0.1,0.36l3.08,2.93h-4.67c-0.15,0-0.26,0.1-0.26,0.26v0.51c0,0.36,0.31,0.67,0.67,0.67h0.72v2.46
		c0,1.85,0.98,2.93,2.62,2.93c0.51,0,0.92-0.05,1.44-0.26v1.64c0,0.46,0.36,0.82,0.82,0.82h0.72c0.15,0,0.31-0.15,0.31-0.31v-7.34
		h1.18c0.15,0,0.26-0.1,0.26-0.26V10.91z M34.08,15.33c-0.31,0.15-0.72,0.21-1.03,0.21c-0.82,0-1.23-0.41-1.23-1.34v-2.46h2.26
		V15.33z"/>
</g>
<g>
	<circle class="st7" cx="13.5" cy="13.14" r="12.5"/>
	<g id="Page-1_1_">
		<g id="Paytm-Mall-Copy">
			<g id="Page-1">
				<g id="Group-Copy">
					<path id="Fill-1" class="st8" d="M22.82,11.91c-0.16-0.51-0.64-0.86-1.17-0.86h-0.02c-0.35,0-0.68,0.15-0.9,0.38
						c-0.22-0.24-0.55-0.38-0.9-0.38h-0.02c-0.31,0-0.6,0.11-0.82,0.31v-0.09c0-0.09-0.09-0.18-0.18-0.18h-0.84
						c-0.11,0-0.18,0.09-0.18,0.18v4.63c0,0.11,0.09,0.18,0.18,0.18h0.84c0.09,0,0.16-0.07,0.18-0.16v-3.35
						c0.02-0.15,0.13-0.27,0.29-0.29h0.15c0.07,0,0.13,0.04,0.18,0.07c0.07,0.05,0.11,0.15,0.11,0.26v3.31
						c0,0.11,0.09,0.18,0.18,0.18h0.84c0.09,0,0.18-0.07,0.18-0.18V12.6c0-0.11,0.05-0.2,0.13-0.27c0.04-0.04,0.09-0.05,0.15-0.05
						h0.15c0.18,0.02,0.29,0.16,0.29,0.31v3.29c0,0.11,0.09,0.18,0.18,0.18h0.84c0.11,0,0.18-0.09,0.18-0.18v-3.53
						C22.89,12.11,22.86,12,22.82,11.91"/>
					<path id="Fill-3" class="st8" d="M17.17,11.1h-0.48v-0.79l0,0l0,0c0-0.09-0.07-0.16-0.16-0.16c-0.02,0-0.02,0-0.04,0
						c-0.53,0.15-0.42,0.9-1.39,0.97h-0.09c-0.02,0-0.02,0-0.04,0l0,0l0,0c-0.09,0.02-0.15,0.09-0.15,0.18v0.84
						c0,0.11,0.09,0.18,0.18,0.18h0.51v3.62c0,0.11,0.07,0.18,0.18,0.18h0.82c0.11,0,0.18-0.09,0.18-0.18v-3.62h0.48
						c0.11,0,0.18-0.09,0.18-0.18v-0.86C17.35,11.17,17.26,11.1,17.17,11.1"/>
					<path id="Fill-4" class="st9" d="M14.15,11.1h-0.84c-0.11,0-0.18,0.09-0.18,0.18v1.76c0,0.11-0.09,0.2-0.2,0.2h-0.35
						c-0.11,0-0.2-0.09-0.2-0.2v-1.76c0-0.11-0.09-0.18-0.18-0.18h-0.84c-0.11,0-0.18,0.09-0.18,0.18v1.94
						c0,0.73,0.51,1.26,1.23,1.26h0.53c0,0,0.02,0,0.04,0c0.09,0.02,0.16,0.09,0.16,0.2c0,0.11-0.07,0.18-0.16,0.2c0,0,0,0-0.02,0
						h-1.23c-0.11,0-0.18,0.09-0.18,0.18v0.86c0,0.11,0.09,0.18,0.18,0.18h1.37c0.71,0,1.23-0.53,1.23-1.26v-3.57
						C14.33,11.17,14.26,11.1,14.15,11.1"/>
					<path id="Fill-5" class="st9" d="M6.07,12.66v0.53c0,0.11-0.09,0.2-0.2,0.2H5.79l0,0H5.34v-1.06h0.53c0.11,0,0.2,0.09,0.2,0.2
						V12.66L6.07,12.66L6.07,12.66z M6.14,11.1H4.31c-0.09,0-0.18,0.09-0.18,0.18v4.63c0,0.11,0.07,0.18,0.16,0.18h0.86
						c0.11,0,0.18-0.09,0.18-0.18v-1.3h0.8c0.68,0,1.13-0.48,1.13-1.15v-1.21C7.27,11.58,6.8,11.1,6.14,11.1L6.14,11.1L6.14,11.1z"
						/>
					<path id="Fill-6" class="st9" d="M9.52,14.65v0.13c0,0.02,0,0.02,0,0.04c0,0.02,0,0.02,0,0.04l0,0
						c-0.02,0.07-0.09,0.13-0.18,0.13H8.99c-0.11,0-0.2-0.09-0.2-0.18v-0.16l0,0v-0.42l0,0v-0.13l0,0c0-0.11,0.09-0.18,0.2-0.18
						h0.35c0.11,0,0.2,0.09,0.2,0.18v0.57H9.52L9.52,14.65z M9.4,11.1H8.24c-0.11,0-0.18,0.07-0.18,0.18v0.8
						c0,0.11,0.09,0.18,0.2,0.18h1.1c0.09,0.02,0.16,0.07,0.16,0.18v0.11c-0.02,0.09-0.07,0.16-0.16,0.18H8.81
						c-0.73,0-1.24,0.49-1.24,1.19v0.99c0,0.69,0.44,1.17,1.17,1.17h1.52c0.27,0,0.49-0.2,0.49-0.48v-3.24
						C10.75,11.59,10.35,11.1,9.4,11.1L9.4,11.1L9.4,11.1z"/>
				</g>
			</g>
		</g>
	</g>
</g>
</svg>